<svg width="404" height="397" viewBox="0 0 404 397" fill="none" xmlns="http://www.w3.org/2000/svg">
<path fill-rule="evenodd" clip-rule="evenodd" d="M258.726 70.2873C278.959 89.1217 269.401 122.328 274.333 149.449C279.396 177.29 300.943 206.157 287.976 231.122C275.005 256.096 240.652 258.617 213.587 266.406C191.454 272.775 169.36 273.102 146.29 271.896C119.999 270.523 89.8691 276.668 70.2554 258.919C50.5167 241.057 48.6851 210.552 49.2233 184.06C49.6942 160.876 60.7114 140.252 73.062 120.748C84.307 102.99 98.466 87.8826 116.72 77.4697C135.778 66.5981 156.753 61.5757 178.742 60.4635C206.196 59.075 238.489 51.4484 258.726 70.2873Z" fill="#EBE55E"/>
<path fill-rule="evenodd" clip-rule="evenodd" d="M264.614 125.531C279.625 144.155 263.783 172.098 270.928 194.857C280.127 224.159 316.001 244.981 311.594 275.18C307.142 305.686 278.637 329.755 249.722 340.152C222.008 350.116 191.677 338.582 163.768 328.329C140.365 319.732 122.427 303.156 103.753 286.529C83.7004 268.673 56.3236 254.338 51.2014 228.095C46.0529 201.717 60.3676 174.672 78.0422 154.799C93.4584 137.464 119.05 136.851 140.434 127.76C159.921 119.475 176.376 104.331 197.652 103.949C221.575 103.519 249.476 106.751 264.614 125.531Z" stroke="white" stroke-width="2"/>
<path fill-rule="evenodd" clip-rule="evenodd" d="M349.622 163.476C359.609 176.863 363.969 193.097 365.45 209.754C366.844 225.445 364.636 241.041 357.779 255.24C350.8 269.692 340.003 281.586 326.544 290.321C311.811 299.885 295.135 310.593 277.964 307.047C260.949 303.534 252.965 284.787 240.615 272.576C228.159 260.262 208.275 252.618 205.411 235.317C202.545 218.005 218.805 204.211 226.697 188.514C234.652 172.693 237.475 153.615 251.755 143.148C267.173 131.845 287.47 126.389 306.152 130.269C324.461 134.072 338.443 148.49 349.622 163.476Z" stroke="white" stroke-width="2"/>
<path fill-rule="evenodd" clip-rule="evenodd" d="M172.015 90.0532C185.375 76.2059 204.745 70.3362 223.743 67.148C242.127 64.063 260.577 66.4944 278.366 72.2062C296.869 78.1477 315.312 85.8374 327.973 100.616C341.075 115.91 346.411 135.777 349.81 155.601C353.498 177.11 357.181 199.763 348.385 219.671C339.293 240.25 321.182 255.692 301.112 265.824C281.409 275.772 257.834 283.324 236.96 275.925C216.836 268.792 213.263 240.746 195.762 228.481C177.28 215.529 144.557 223.967 134.2 203.913C124.187 184.526 144.393 162.93 151.247 142.291C157.277 124.136 158.75 103.803 172.015 90.0532Z" stroke="white" stroke-width="2"/>
</svg>
