<svg width="404" height="397" viewBox="0 0 404 397" fill="none" xmlns="http://www.w3.org/2000/svg">
<path fill-rule="evenodd" clip-rule="evenodd" d="M349.633 163.478C359.618 176.865 363.976 193.1 365.457 209.758C366.851 225.449 364.643 241.045 357.788 255.245C350.81 269.697 340.015 281.591 326.56 290.327C311.83 299.89 295.157 310.599 277.99 307.053C260.98 303.539 252.997 284.792 240.649 272.581C228.197 260.267 208.317 252.622 205.453 235.321C202.588 218.009 218.844 204.214 226.735 188.517C234.688 172.696 237.511 153.618 251.787 143.15C267.202 131.847 287.494 126.391 306.172 130.271C324.477 134.074 338.456 148.493 349.633 163.478Z" fill="#4C87F7"/>
<path fill-rule="evenodd" clip-rule="evenodd" d="M264.643 125.526C279.652 144.15 263.812 172.093 270.956 194.853C280.153 224.155 316.02 244.978 311.613 275.178C307.162 305.684 278.664 329.754 249.755 340.151C222.047 350.115 191.722 338.581 163.819 328.328C140.422 319.731 122.488 303.155 103.818 286.527C83.7699 268.67 56.3992 254.336 51.2781 228.092C46.1308 201.713 60.4423 174.668 78.113 154.794C93.5258 137.459 119.111 136.846 140.491 127.754C159.974 119.47 176.425 104.325 197.696 103.943C221.614 103.514 249.509 106.745 264.643 125.526Z" stroke="white" stroke-width="2"/>
<path fill-rule="evenodd" clip-rule="evenodd" d="M172.063 90.06C185.419 76.2124 204.785 70.3426 223.779 67.1543C242.159 64.0692 260.605 66.5007 278.39 72.2126C296.889 78.1542 315.328 85.8441 327.986 100.623C341.085 115.917 346.42 135.785 349.818 155.609C353.505 177.118 357.187 199.772 348.394 219.68C339.304 240.26 321.197 255.702 301.131 265.834C281.432 275.782 257.862 283.335 236.993 275.936C216.873 268.802 213.301 240.756 195.804 228.491C177.326 215.538 144.611 223.976 134.256 203.922C124.245 184.534 144.446 162.939 151.299 142.299C157.328 124.144 158.8 103.81 172.063 90.06Z" stroke="white" stroke-width="2"/>
<path fill-rule="evenodd" clip-rule="evenodd" d="M258.783 70.2574C279.02 89.0838 269.46 122.276 274.393 149.386C279.458 177.215 301.009 206.069 288.039 231.024C275.065 255.987 240.704 258.508 213.634 266.293C191.495 272.66 169.397 272.986 146.322 271.781C120.025 270.408 89.888 276.55 70.2699 258.809C50.5268 240.955 48.6948 210.463 49.2331 183.982C49.7041 160.808 60.7238 140.193 73.0771 120.697C84.3247 102.947 98.4869 87.8453 116.745 77.4368C135.807 66.5699 156.787 61.5496 178.781 60.4379C206.241 59.0499 238.541 51.4265 258.783 70.2574Z" stroke="white" stroke-width="2"/>
</svg>
