<svg width="404" height="397" viewBox="0 0 404 397" fill="none" xmlns="http://www.w3.org/2000/svg">
<path fill-rule="evenodd" clip-rule="evenodd" d="M349.622 163.478C359.608 176.865 363.968 193.1 365.449 209.758C366.843 225.448 364.635 241.044 357.778 255.244C350.799 269.697 340.002 281.59 326.544 290.326C311.81 299.89 295.135 310.598 277.964 307.052C260.95 303.539 252.965 284.791 240.615 272.581C228.16 260.267 208.276 252.622 205.412 235.321C202.546 218.009 218.806 204.214 226.698 188.517C234.653 172.696 237.476 153.618 251.755 143.15C267.174 131.847 287.47 126.39 306.152 130.271C324.46 134.074 338.442 148.492 349.622 163.478Z" stroke="white" stroke-width="2"/>
<path fill-rule="evenodd" clip-rule="evenodd" d="M264.613 125.525C279.624 144.149 263.782 172.093 270.927 194.852C280.125 224.155 316 244.978 311.592 275.177C307.14 305.684 278.636 329.753 249.721 340.15C222.007 350.114 191.677 338.58 163.768 328.327C140.366 319.73 122.427 303.154 103.754 286.526C83.7017 268.669 56.3252 254.335 51.2031 228.091C46.0547 201.712 60.3692 174.668 78.0436 154.793C93.4596 137.459 119.051 136.845 140.434 127.754C159.921 119.469 176.376 104.325 197.652 103.943C221.575 103.513 249.475 106.745 264.613 125.525Z" fill="#7943E3"/>
<path fill-rule="evenodd" clip-rule="evenodd" d="M172.01 90.0602C185.369 76.2127 204.739 70.3428 223.737 67.1546C242.121 64.0695 260.571 66.501 278.359 72.2129C296.862 78.1545 315.304 85.8443 327.965 100.624C341.067 115.917 346.403 135.785 349.802 155.609C353.49 177.119 357.173 199.772 348.378 219.681C339.285 240.26 321.175 255.702 301.105 265.835C281.402 275.782 257.827 283.335 236.954 275.936C216.83 268.803 213.257 240.756 195.756 228.491C177.274 215.539 144.552 223.976 134.195 203.922C124.183 184.535 144.388 162.939 151.242 142.299C157.272 124.144 158.745 103.81 172.01 90.0602Z" stroke="white" stroke-width="2"/>
<path fill-rule="evenodd" clip-rule="evenodd" d="M258.721 70.2884C278.954 89.1231 269.396 122.33 274.328 149.452C279.391 177.293 300.938 206.16 287.971 231.126C275 256.1 240.647 258.622 213.583 266.41C191.45 272.78 169.356 273.106 146.287 271.901C119.996 270.528 89.8664 276.672 70.2529 258.923C50.5145 241.061 48.6829 210.556 49.2211 184.063C49.692 160.879 60.7091 140.254 73.0595 120.75C84.3044 102.992 98.4633 87.884 116.717 77.471C135.775 66.5992 156.749 61.5767 178.738 60.4645C206.192 59.0759 238.485 51.4492 258.721 70.2884Z" stroke="white" stroke-width="2"/>
</svg>
