<svg width="405" height="397" viewBox="0 0 405 397" fill="none" xmlns="http://www.w3.org/2000/svg">
<path fill-rule="evenodd" clip-rule="evenodd" d="M349.705 163.479C359.692 176.866 364.052 193.101 365.532 209.758C366.927 225.449 364.718 241.045 357.862 255.245C350.883 269.697 340.086 281.591 326.628 290.327C311.894 299.891 295.219 310.599 278.048 307.053C261.034 303.54 253.05 284.792 240.7 272.581C228.245 260.267 208.361 252.623 205.496 235.321C202.63 218.009 218.89 204.215 226.783 188.518C234.737 172.696 237.561 153.618 251.839 143.151C267.258 131.847 287.554 126.391 306.236 130.271C324.544 134.074 338.526 148.493 349.705 163.479Z" stroke="white" stroke-width="2"/>
<path fill-rule="evenodd" clip-rule="evenodd" d="M172.1 90.0603C185.459 76.2128 204.828 70.3429 223.827 67.1547C242.21 64.0696 260.66 66.5011 278.448 72.213C296.951 78.1546 315.393 85.8444 328.054 100.624C341.156 115.917 346.492 135.785 349.891 155.609C353.578 177.119 357.262 199.772 348.466 219.68C339.374 240.26 321.263 255.702 301.194 265.834C281.491 275.782 257.917 283.335 237.043 275.936C216.919 268.802 213.347 240.756 195.846 228.491C177.364 215.539 144.642 223.976 134.285 203.922C124.272 184.535 144.478 162.939 151.332 142.299C157.362 124.144 158.835 103.81 172.1 90.0603Z" fill="#EA346F" stroke="#EA346F" stroke-width="2"/>
<path fill-rule="evenodd" clip-rule="evenodd" d="M258.836 70.2572C279.077 89.0836 269.515 122.276 274.45 149.386C279.515 177.215 301.071 206.069 288.099 231.024C275.122 255.986 240.754 258.507 213.678 266.292C191.535 272.659 169.432 272.985 146.352 271.78C120.05 270.408 89.9071 276.55 70.285 258.808C50.5379 240.954 48.7056 210.462 49.2439 183.981C49.715 160.808 60.737 140.192 73.0928 120.697C84.3426 102.946 98.5077 87.845 116.769 77.4366C135.836 66.5697 156.819 61.5494 178.818 60.4377C206.284 59.0497 238.59 51.4264 258.836 70.2572Z" stroke="white" stroke-width="2"/>
<path fill-rule="evenodd" clip-rule="evenodd" d="M264.7 125.525C279.711 144.15 263.869 172.093 271.014 194.853C280.213 224.155 316.087 244.978 311.679 275.177C307.227 305.684 278.723 329.754 249.809 340.15C222.095 350.115 191.765 338.581 163.856 328.328C140.454 319.731 122.516 303.154 103.843 286.526C83.7904 268.67 56.4141 254.335 51.292 228.091C46.1436 201.713 60.458 174.668 78.1323 154.794C93.5482 137.459 119.139 136.845 140.523 127.754C160.009 119.469 176.464 104.325 197.74 103.943C221.662 103.514 249.563 106.745 264.7 125.525Z" stroke="white" stroke-width="3"/>
</svg>
