<svg width="56" height="56" viewBox="0 0 56 56" fill="none" xmlns="http://www.w3.org/2000/svg">
<path d="M0 28C0 12.536 12.536 0 28 0V0C43.464 0 56 12.536 56 28V28C56 43.464 43.464 56 28 56V56C12.536 56 0 43.464 0 28V28Z" fill="white"/>
<path d="M14.4844 28.1152C14.4844 28.5254 14.6621 28.9355 14.9766 29.2363L24 38.2461C24.3281 38.5605 24.6836 38.7109 25.0801 38.7109C25.9414 38.7109 26.5703 38.0957 26.5703 37.2617C26.5703 36.8242 26.4062 36.4551 26.1191 36.1816L23.043 33.0645L19.0781 29.4414L22.2637 29.6328L38.834 29.6328C39.7363 29.6328 40.3652 29.0039 40.3652 28.1152C40.3652 27.2129 39.7363 26.584 38.834 26.584L22.2637 26.584L19.0918 26.7754L23.043 23.1523L26.1191 20.0352C26.4062 19.7617 26.5703 19.3926 26.5703 18.9551C26.5703 18.1211 25.9414 17.5059 25.0801 17.5059C24.6836 17.5059 24.3145 17.6562 23.959 17.998L14.9766 26.9805C14.6621 27.2812 14.4844 27.6914 14.4844 28.1152Z" fill="black" fill-opacity="0.87"/>
</svg>
