<svg width="154" height="64" viewBox="0 0 154 64" fill="none" xmlns="http://www.w3.org/2000/svg">
<rect width="154" height="64" rx="10" fill="white"/>
<path d="M107 30.5C106.172 30.5 105.5 31.1716 105.5 32C105.5 32.8284 106.172 33.5 107 33.5V30.5ZM134.061 33.0607C134.646 32.4749 134.646 31.5251 134.061 30.9393L124.515 21.3934C123.929 20.8076 122.979 20.8076 122.393 21.3934C121.808 21.9792 121.808 22.9289 122.393 23.5147L130.879 32L122.393 40.4853C121.808 41.0711 121.808 42.0208 122.393 42.6066C122.979 43.1924 123.929 43.1924 124.515 42.6066L134.061 33.0607ZM107 33.5H133V30.5H107V33.5Z" fill="black"/>
<path d="M38.4141 41H33.7969L26.3438 28.0391H26.2383C26.3867 30.3281 26.4609 31.9609 26.4609 32.9375V41H23.2148V23.8672H27.7969L35.2383 36.6992H35.3203C35.2031 34.4727 35.1445 32.8984 35.1445 31.9766V23.8672H38.4141V41ZM52.6055 41H42.7383V23.8672H52.6055V26.8438H46.3711V30.6055H52.1719V33.582H46.3711V38H52.6055V41ZM70.043 41H65.8945L61.9102 34.5195L57.9258 41H54.0352L59.7188 32.1641L54.3984 23.8672H58.4062L62.0977 30.0312L65.7188 23.8672H69.6328L64.2539 32.3633L70.043 41ZM78.8086 41H75.1758V26.8906H70.5234V23.8672H83.4609V26.8906H78.8086V41Z" fill="black"/>
</svg>
